<?xml version="1.0" encoding="UTF-8"?>
<svg width="200" height="200" version="1.1" viewBox="0 0 200 200" xmlns="http://www.w3.org/2000/svg">
 <rect width="200" height="200" fill="#f0f0f0"/>
 <g transform="matrix(4.1667 0 0 4.1667 33.333 33.333)" fill="#999">
  <path d="m16 2c-7.72 0-14 6.28-14 14s6.28 14 14 14 14-6.28 14-14-6.28-14-14-14zm0 3.5c2.9 0 5.25 2.35 5.25 5.25s-2.35 5.25-5.25 5.25-5.25-2.35-5.25-5.25 2.35-5.25 5.25-5.25zm0 19.95c-4.375 0-8.225-2.24-10.5-5.635 0.035-3.48 7-5.39 10.5-5.39s10.465 1.91 10.5 5.39c-2.275 3.395-6.125 5.635-10.5 5.635z"/>
 </g>
</svg> 