<?xml version="1.0" encoding="UTF-8"?>
<svg width="24" height="24" viewBox="0 0 24 24" fill="none" xmlns="http://www.w3.org/2000/svg">
  <path d="M12 2C6.47715 2 2 6.47715 2 12C2 17.5228 6.47715 22 12 22C17.5228 22 22 17.5228 22 12C22 6.47715 17.5228 2 12 2ZM16.5917 16.8088C16.3733 17.1669 15.9099 17.2772 15.5519 17.0589C13.2419 15.6949 10.3122 15.4372 6.93099 16.2502C6.52099 16.3502 6.11066 16.1015 6.01066 15.6915C5.91066 15.2815 6.15932 14.8712 6.56932 14.7712C10.3093 13.8775 13.5793 14.1855 16.2083 15.7355C16.5663 15.9539 16.6767 16.4172 16.4583 16.7752V16.8088ZM17.8083 14.0422C17.5283 14.4889 16.9466 14.6275 16.5 14.3475C13.855 12.7875 9.87161 12.3702 6.83328 13.3569C6.32495 13.5069 5.78328 13.2235 5.63328 12.7169C5.48328 12.2085 5.76661 11.6669 6.27495 11.5169C9.80828 10.3902 14.2416 10.8569 17.3033 12.6669C17.75 12.9469 17.8883 13.5285 17.6083 13.9752V14.0422ZM17.9033 11.1502C14.7033 9.35021 9.40828 9.18354 6.49995 10.1169C5.89995 10.2969 5.25828 9.95687 5.07828 9.35687C4.89828 8.75687 5.23828 8.11521 5.83828 7.93521C9.23828 6.85687 15.1049 7.05687 18.8049 9.15021C19.3466 9.46854 19.5216 10.1519 19.2033 10.6902C18.8849 11.2319 18.2016 11.4069 17.6633 11.0885L17.9033 11.1502Z" fill="currentColor"/>
</svg> 